<svg width="512"
     height="512"
     xmlns="http://www.w3.org/2000/svg">

    <rect x="0"
          y="0"
          width="100%"
          height="100%"
          fill="white"
    />

    <circle cx="256"
            cy="256"
            r="240"
            stroke="black"
            stroke-width="8"
            fill="none"
    />

    <line x1="256"
          y1="16"
          x2="256"
          y2="50"
          stroke-width="16"
          stroke="black"
    />

    <line x1="256"
          y1="496"
          x2="256"
          y2="462"
          stroke-width="16"
          stroke="black"
    />

    <line x1="16"
          y1="256"
          x2="50"
          y2="256"
          stroke-width="16"
          stroke="black"
    />

    <line x1="496"
          y1="256"
          x2="462"
          y2="256"
          stroke-width="16"
          stroke="black"
    />

    <!--    <rect x="256"-->
    <!--          y="248"-->
    <!--          width="230"-->
    <!--          height="16"-->
    <!--          stroke="black"-->
    <!--          stroke-width="0"-->
    <!--          fill="black"-->
    <!--          transform="rotate(-45, 256, 256)"-->
    <!--    />-->

    <!--    <rect x="256"-->
    <!--          y="248"-->
    <!--          width="140"-->
    <!--          height="16"-->
    <!--          stroke="black"-->
    <!--          stroke-width="0"-->
    <!--          fill="black"-->
    <!--          transform="rotate(10, 256, 256)"-->
    <!--    />-->

    <line x1="256"
          y1="256"
          x2="256"
          y2="30"
          stroke="black"
          stroke-width="16"
          stroke-linecap="round"
          transform="rotate(312, 256, 256)"
    />

    <line x1="256"
          y1="256"
          x2="256"
          y2="100"
          stroke="black"
          stroke-width="16"
          stroke-linecap="round"
          transform="rotate(236, 256, 256)"
    />

    <!--    <rect x="256"-->
    <!--          y="236"-->
    <!--          width="220"-->
    <!--          height="40"-->
    <!--          stroke="black"-->
    <!--          stroke-width="8"-->
    <!--          fill="lightgray"-->
    <!--          transform="rotate(120, 256, 256)"-->
    <!--    />-->

    <circle cx="256"
            cy="256"
            r="16"
            fill="black"
    />

</svg>